<?xml version="1.0" encoding="iso-8859-1"?>
<!-- Generator: Adobe Illustrator 18.1.1, SVG Export Plug-In . SVG Version: 6.00 Build 0)  -->
<svg xmlns="http://www.w3.org/2000/svg" xmlns:xlink="http://www.w3.org/1999/xlink" version="1.1" id="Capa_1" x="0px" y="0px" viewBox="0 0 360.602 360.602" style="enable-background:new 0 0 360.602 360.602;" xml:space="preserve" width="512px" height="512px">
<g>
	<g>
		<circle cx="22.219" cy="282.453" r="22.219" fill="#d95a00"/>
		<path d="M11.732,211.168c-6.173,0-11.177,5.004-11.177,11.177s5.004,11.199,11.177,11.199    c32.759,0,59.416,26.641,59.416,59.405c0,6.173,5.004,11.188,11.177,11.188c6.179,0,11.188-5.015,11.188-11.188    C93.508,247.849,56.827,211.168,11.732,211.168z" fill="#d95a00"/>
		<path d="M11.732,156.196c-6.173,0-11.177,5.004-11.177,11.177c0,6.179,5.004,11.188,11.177,11.188    c63.077,0,114.389,51.307,114.389,114.373c0,6.173,4.998,11.183,11.177,11.183c6.173,0,11.177-5.009,11.177-11.183    C148.476,217.532,87.139,156.196,11.732,156.196z" fill="#d95a00"/>
		<path d="M357.33,202.879l-75.162-75.157V78.161c0-6.173-5.004-11.183-11.177-11.183    c-6.19,0-11.194,5.009-11.194,11.183v27.206l-53.025-53.02c-4.357-4.368-11.444-4.368-15.795,0L88.771,154.564    c6.706,3.682,13.07,7.881,19.097,12.526l91.028-91.028l142.629,142.639c2.176,2.17,5.053,3.28,7.903,3.28    c2.855,0,5.733-1.088,7.903-3.28C361.692,214.323,361.692,207.241,357.33,202.879z" fill="#d95a00"/>
		<path d="M325.343,215.71L206.799,97.165c-2.105-2.099-4.939-3.28-7.903-3.28s-5.798,1.18-7.903,3.28    l-75.897,75.886c30.742,26.994,50.181,66.563,50.181,110.696c0,8.915-0.832,17.633-2.355,26.124    c4.014-1.469,7.691-3.835,10.655-7.033c4.645-5.026,7.201-11.536,7.201-18.346v-42.49c0-10.318,7.898-18.923,18.118-19.891    c10.209,0.968,18.112,9.573,18.112,19.891v42.49c0,6.81,2.551,13.32,7.196,18.346c5.102,5.526,12.33,8.692,19.82,8.692h57.872    c14.898,0,27.027-12.124,27.027-27.038v-57.855c0-1.697-0.152-3.421-0.495-5.129C327.986,219.311,326.926,217.293,325.343,215.71z    " fill="#d95a00"/>
	</g>
</g>
<g>
</g>
<g>
</g>
<g>
</g>
<g>
</g>
<g>
</g>
<g>
</g>
<g>
</g>
<g>
</g>
<g>
</g>
<g>
</g>
<g>
</g>
<g>
</g>
<g>
</g>
<g>
</g>
<g>
</g>
</svg>
