<?xml version="1.0" encoding="UTF-8" standalone="no"?>
<!-- Generator: Adobe Illustrator 16.0.0, SVG Export Plug-In . SVG Version: 6.00 Build 0)  -->

<svg
   xmlns:dc="http://purl.org/dc/elements/1.1/"
   xmlns:cc="http://creativecommons.org/ns#"
   xmlns:rdf="http://www.w3.org/1999/02/22-rdf-syntax-ns#"
   xmlns:svg="http://www.w3.org/2000/svg"
   xmlns="http://www.w3.org/2000/svg"
   xmlns:sodipodi="http://sodipodi.sourceforge.net/DTD/sodipodi-0.dtd"
   xmlns:inkscape="http://www.inkscape.org/namespaces/inkscape"
   version="1.1"
   id="Capa_1"
   x="0px"
   y="0px"
   width="485.213px"
   height="485.213px"
   viewBox="0 0 485.213 485.213"
   style="enable-background:new 0 0 485.213 485.213;"
   xml:space="preserve"
   inkscape:version="0.91 r"
   sodipodi:docname="magnifier.svg"><metadata
     id="metadata3718"><rdf:RDF><cc:Work
         rdf:about=""><dc:format>image/svg+xml</dc:format><dc:type
           rdf:resource="http://purl.org/dc/dcmitype/StillImage" /><dc:title></dc:title></cc:Work></rdf:RDF></metadata><defs
     id="defs3716" /><sodipodi:namedview
     pagecolor="#ffffff"
     bordercolor="#666666"
     borderopacity="1"
     objecttolerance="10"
     gridtolerance="10"
     guidetolerance="10"
     inkscape:pageopacity="0"
     inkscape:pageshadow="2"
     inkscape:window-width="640"
     inkscape:window-height="480"
     id="namedview3714"
     showgrid="false"
     inkscape:zoom="0.48638432"
     inkscape:cx="242.60651"
     inkscape:cy="242.60651"
     inkscape:window-x="0"
     inkscape:window-y="0"
     inkscape:window-maximized="0"
     inkscape:current-layer="Capa_1" /><g
     id="g3674"
     style="fill:#ffffff"><g
       id="g3676"
       style="fill:#ffffff"><path
         d="M471.882,407.567L360.567,296.243c-16.586,25.795-38.536,47.734-64.331,64.321l111.324,111.324    c17.772,17.768,46.587,17.768,64.321,0C489.654,454.149,489.654,425.334,471.882,407.567z"
         id="path3678"
         style="fill:#ffffff" /><path
         d="M363.909,181.955C363.909,81.473,282.44,0,181.956,0C81.474,0,0.001,81.473,0.001,181.955s81.473,181.951,181.955,181.951    C282.44,363.906,363.909,282.437,363.909,181.955z M181.956,318.416c-75.252,0-136.465-61.208-136.465-136.46    c0-75.252,61.213-136.465,136.465-136.465c75.25,0,136.468,61.213,136.468,136.465    C318.424,257.208,257.206,318.416,181.956,318.416z"
         id="path3680"
         style="fill:#ffffff" /><path
         d="M75.817,181.955h30.322c0-41.803,34.014-75.814,75.816-75.814V75.816C123.438,75.816,75.817,123.437,75.817,181.955z"
         id="path3682"
         style="fill:#ffffff" /></g></g><g
     id="g3684" /><g
     id="g3686" /><g
     id="g3688" /><g
     id="g3690" /><g
     id="g3692" /><g
     id="g3694" /><g
     id="g3696" /><g
     id="g3698" /><g
     id="g3700" /><g
     id="g3702" /><g
     id="g3704" /><g
     id="g3706" /><g
     id="g3708" /><g
     id="g3710" /><g
     id="g3712" /></svg>